<svg xmlns="http://www.w3.org/2000/svg" xmlns:xlink="http://www.w3.org/1999/xlink" width="1080" zoomAndPan="magnify" viewBox="0 0 810 809.999993" height="1080" preserveAspectRatio="xMidYMid meet" version="1.0"><defs><clipPath id="id1"><path d="M 67.933594 67.933594 L 742.183594 67.933594 L 742.183594 742.183594 L 67.933594 742.183594 Z M 67.933594 67.933594 " clip-rule="nonzero"/></clipPath></defs><rect x="-81" width="972" fill="#ffffff" y="-80.999999" height="971.999992" fill-opacity="1"/><rect x="-81" width="972" fill="#ffffff" y="-80.999999" height="971.999992" fill-opacity="1"/><rect x="-81" width="972" fill="#ffffff" y="-80.999999" height="971.999992" fill-opacity="1"/><rect x="-81" width="972" fill="#ffffff" y="-80.999999" height="971.999992" fill-opacity="1"/><g clip-path="url(#id1)"><path fill="#07406d" d="M 742.183594 405.058594 C 742.183594 410.578125 742.050781 416.089844 741.78125 421.601562 C 741.507812 427.113281 741.101562 432.613281 740.5625 438.105469 C 740.019531 443.59375 739.347656 449.070312 738.535156 454.527344 C 737.726562 459.984375 736.785156 465.417969 735.707031 470.832031 C 734.632812 476.242188 733.421875 481.625 732.082031 486.976562 C 730.742188 492.328125 729.269531 497.644531 727.667969 502.921875 C 726.066406 508.203125 724.335938 513.441406 722.476562 518.632812 C 720.621094 523.828125 718.632812 528.976562 716.523438 534.074219 C 714.410156 539.167969 712.175781 544.210938 709.816406 549.199219 C 707.457031 554.1875 704.980469 559.113281 702.378906 563.980469 C 699.777344 568.847656 697.058594 573.644531 694.222656 578.378906 C 691.386719 583.109375 688.433594 587.769531 685.371094 592.355469 C 682.304688 596.945312 679.128906 601.453125 675.839844 605.886719 C 672.554688 610.316406 669.160156 614.664062 665.660156 618.929688 C 662.160156 623.195312 658.558594 627.371094 654.855469 631.460938 C 651.148438 635.546875 647.34375 639.542969 643.445312 643.445312 C 639.542969 647.34375 635.546875 651.148438 631.460938 654.855469 C 627.371094 658.558594 623.195312 662.160156 618.929688 665.660156 C 614.664062 669.160156 610.316406 672.554688 605.886719 675.839844 C 601.453125 679.128906 596.945312 682.304688 592.355469 685.371094 C 587.769531 688.433594 583.109375 691.386719 578.378906 694.222656 C 573.644531 697.058594 568.847656 699.777344 563.980469 702.378906 C 559.113281 704.980469 554.1875 707.457031 549.199219 709.816406 C 544.210938 712.175781 539.167969 714.410156 534.074219 716.523438 C 528.976562 718.632812 523.828125 720.621094 518.632812 722.476562 C 513.441406 724.335938 508.203125 726.066406 502.921875 727.667969 C 497.644531 729.269531 492.328125 730.742188 486.976562 732.082031 C 481.625 733.421875 476.242188 734.632812 470.832031 735.707031 C 465.417969 736.785156 459.984375 737.726562 454.527344 738.535156 C 449.070312 739.347656 443.59375 740.019531 438.105469 740.5625 C 432.613281 741.101562 427.113281 741.507812 421.601562 741.78125 C 416.089844 742.050781 410.578125 742.183594 405.058594 742.183594 C 399.542969 742.183594 394.027344 742.050781 388.519531 741.78125 C 383.007812 741.507812 377.507812 741.101562 372.015625 740.5625 C 366.527344 740.019531 361.050781 739.347656 355.59375 738.535156 C 350.136719 737.726562 344.703125 736.785156 339.289062 735.707031 C 333.878906 734.632812 328.496094 733.421875 323.144531 732.082031 C 317.792969 730.742188 312.476562 729.269531 307.199219 727.667969 C 301.917969 726.066406 296.679688 724.335938 291.488281 722.476562 C 286.292969 720.621094 281.144531 718.632812 276.046875 716.523438 C 270.949219 714.410156 265.910156 712.175781 260.921875 709.816406 C 255.933594 707.457031 251.007812 704.980469 246.140625 702.378906 C 241.273438 699.777344 236.476562 697.058594 231.742188 694.222656 C 227.011719 691.386719 222.351562 688.433594 217.765625 685.371094 C 213.175781 682.304688 208.667969 679.128906 204.234375 675.839844 C 199.804688 672.554688 195.457031 669.160156 191.191406 665.660156 C 186.925781 662.160156 182.75 658.558594 178.660156 654.855469 C 174.574219 651.148438 170.578125 647.34375 166.675781 643.445312 C 162.777344 639.542969 158.972656 635.546875 155.265625 631.460938 C 151.5625 627.371094 147.960938 623.195312 144.460938 618.929688 C 140.960938 614.664062 137.566406 610.316406 134.277344 605.886719 C 130.992188 601.453125 127.816406 596.945312 124.75 592.355469 C 121.6875 587.769531 118.734375 583.109375 115.898438 578.378906 C 113.0625 573.644531 110.34375 568.847656 107.742188 563.980469 C 105.140625 559.113281 102.660156 554.1875 100.304688 549.199219 C 97.945312 544.210938 95.707031 539.167969 93.597656 534.074219 C 91.484375 528.976562 89.5 523.828125 87.640625 518.632812 C 85.785156 513.441406 84.054688 508.203125 82.453125 502.921875 C 80.851562 497.644531 79.378906 492.328125 78.039062 486.976562 C 76.699219 481.625 75.488281 476.242188 74.414062 470.832031 C 73.335938 465.417969 72.394531 459.984375 71.585938 454.527344 C 70.773438 449.070312 70.101562 443.59375 69.558594 438.105469 C 69.019531 432.613281 68.613281 427.113281 68.339844 421.601562 C 68.070312 416.089844 67.933594 410.578125 67.933594 405.058594 C 67.933594 399.542969 68.070312 394.027344 68.339844 388.519531 C 68.613281 383.007812 69.019531 377.507812 69.558594 372.015625 C 70.101562 366.527344 70.773438 361.050781 71.585938 355.59375 C 72.394531 350.136719 73.335938 344.703125 74.414062 339.289062 C 75.488281 333.878906 76.699219 328.496094 78.039062 323.144531 C 79.378906 317.792969 80.851562 312.476562 82.453125 307.199219 C 84.054688 301.917969 85.785156 296.679688 87.640625 291.488281 C 89.5 286.292969 91.484375 281.144531 93.597656 276.046875 C 95.707031 270.949219 97.945312 265.910156 100.304688 260.921875 C 102.660156 255.933594 105.140625 251.007812 107.742188 246.140625 C 110.34375 241.273438 113.0625 236.476562 115.898438 231.742188 C 118.734375 227.011719 121.6875 222.351562 124.75 217.765625 C 127.816406 213.175781 130.992188 208.667969 134.277344 204.234375 C 137.566406 199.804688 140.960938 195.457031 144.460938 191.191406 C 147.960938 186.925781 151.5625 182.75 155.265625 178.660156 C 158.972656 174.574219 162.777344 170.578125 166.675781 166.675781 C 170.578125 162.777344 174.574219 158.972656 178.660156 155.265625 C 182.75 151.5625 186.925781 147.960938 191.191406 144.460938 C 195.457031 140.960938 199.804688 137.566406 204.234375 134.277344 C 208.667969 130.992188 213.175781 127.816406 217.765625 124.75 C 222.351562 121.6875 227.011719 118.734375 231.742188 115.898438 C 236.476562 113.0625 241.273438 110.34375 246.140625 107.742188 C 251.007812 105.140625 255.933594 102.660156 260.921875 100.304688 C 265.910156 97.945312 270.949219 95.710938 276.046875 93.597656 C 281.144531 91.484375 286.292969 89.5 291.488281 87.640625 C 296.679688 85.785156 301.917969 84.054688 307.199219 82.453125 C 312.476562 80.851562 317.792969 79.378906 323.144531 78.039062 C 328.496094 76.699219 333.878906 75.488281 339.289062 74.414062 C 344.703125 73.335938 350.136719 72.394531 355.59375 71.585938 C 361.050781 70.773438 366.527344 70.101562 372.015625 69.558594 C 377.507812 69.019531 383.007812 68.613281 388.519531 68.339844 C 394.027344 68.070312 399.542969 67.933594 405.058594 67.933594 C 410.578125 67.933594 416.089844 68.070312 421.601562 68.339844 C 427.113281 68.613281 432.613281 69.019531 438.105469 69.558594 C 443.59375 70.101562 449.070312 70.773438 454.527344 71.585938 C 459.984375 72.394531 465.417969 73.335938 470.832031 74.414062 C 476.242188 75.488281 481.625 76.699219 486.976562 78.039062 C 492.328125 79.378906 497.644531 80.851562 502.921875 82.453125 C 508.203125 84.054688 513.441406 85.785156 518.632812 87.640625 C 523.828125 89.5 528.976562 91.484375 534.074219 93.597656 C 539.167969 95.710938 544.210938 97.945312 549.199219 100.304688 C 554.1875 102.660156 559.113281 105.140625 563.980469 107.742188 C 568.847656 110.34375 573.644531 113.0625 578.378906 115.898438 C 583.109375 118.734375 587.769531 121.6875 592.355469 124.75 C 596.945312 127.816406 601.453125 130.992188 605.886719 134.277344 C 610.316406 137.566406 614.664062 140.960938 618.929688 144.460938 C 623.195312 147.960938 627.371094 151.5625 631.460938 155.265625 C 635.546875 158.972656 639.542969 162.777344 643.445312 166.675781 C 647.34375 170.578125 651.148438 174.574219 654.855469 178.660156 C 658.558594 182.75 662.160156 186.925781 665.660156 191.191406 C 669.160156 195.457031 672.554688 199.804688 675.839844 204.234375 C 679.128906 208.667969 682.304688 213.175781 685.371094 217.765625 C 688.433594 222.351562 691.386719 227.011719 694.222656 231.742188 C 697.058594 236.476562 699.777344 241.273438 702.378906 246.140625 C 704.980469 251.007812 707.457031 255.933594 709.816406 260.921875 C 712.175781 265.910156 714.410156 270.949219 716.523438 276.046875 C 718.632812 281.144531 720.621094 286.292969 722.476562 291.488281 C 724.335938 296.679688 726.066406 301.917969 727.667969 307.199219 C 729.269531 312.476562 730.742188 317.792969 732.082031 323.144531 C 733.421875 328.496094 734.632812 333.878906 735.707031 339.289062 C 736.785156 344.703125 737.726562 350.136719 738.535156 355.59375 C 739.347656 361.050781 740.019531 366.527344 740.5625 372.015625 C 741.101562 377.507812 741.507812 383.007812 741.78125 388.519531 C 742.050781 394.027344 742.183594 399.542969 742.183594 405.058594 Z M 742.183594 405.058594 " fill-opacity="1" fill-rule="nonzero"/></g><path fill="#ffffff" d="M 321.453125 637.542969 L 137.605469 453.707031 L 210.855469 380.449219 L 321.453125 491.027344 L 599.21875 213.238281 L 672.496094 286.480469 Z M 321.453125 637.542969 " fill-opacity="1" fill-rule="nonzero"/></svg>